<?xml version="1.0" encoding="UTF-8" standalone="no"?>
<!DOCTYPE svg PUBLIC "-//W3C//DTD SVG 1.1//EN" "http://www.w3.org/Graphics/SVG/1.1/DTD/svg11.dtd">
<svg xmlns="http://www.w3.org/2000/svg" version="1.1" viewBox="0.00 0.00 512.00 512.00">
<path fill="#000000" d="
  M 246.32 0.00
  L 265.81 0.00
  C 306.25 1.04 345.54 4.78 384.98 14.07
  C 412.22 20.48 475.58 38.98 475.53 74.99
  Q 475.51 91.76 475.42 108.50
  C 475.21 147.20 400.12 166.10 370.98 171.92
  C 311.52 183.82 248.63 185.56 186.00 178.98
  Q 144.64 174.63 104.86 162.56
  C 83.55 156.10 42.30 140.06 37.13 114.91
  Q 36.55 112.09 36.53 105.94
  Q 36.46 90.46 36.46 74.99
  C 36.46 47.95 71.90 31.84 93.01 24.27
  C 141.72 6.80 194.87 1.01 246.32 0.00
  Z"
/>
<path fill="#000000" d="
  M 129.45 207.05
  C 202.24 221.79 279.00 223.16 352.02 212.66
  C 394.79 206.51 438.55 195.23 475.07 171.24
  A 0.28 0.28 0.0 0 1 475.50 171.48
  Q 475.51 194.66 475.46 218.00
  C 475.35 267.92 354.54 286.22 320.08 289.54
  Q 255.41 295.79 190.75 289.28
  C 149.50 285.13 100.91 275.95 63.04 254.26
  C 53.12 248.57 41.38 238.78 37.88 227.05
  Q 36.46 222.32 36.48 212.33
  Q 36.53 191.85 36.49 171.56
  A 0.38 0.38 0.0 0 1 37.08 171.25
  C 64.56 189.68 95.98 200.27 129.45 207.05
  Z"
/>
<path fill="#000000" d="
  M 110.84 383.86
  C 88.65 377.63 44.61 361.61 37.60 336.14
  Q 36.53 332.25 36.52 323.64
  Q 36.48 302.43 36.51 281.17
  A 0.29 0.28 -73.4 0 1 36.95 280.93
  C 74.35 305.60 119.59 316.75 163.49 322.81
  C 236.38 332.86 315.30 331.52 388.93 315.41
  C 419.16 308.79 449.20 298.38 474.96 280.90
  A 0.34 0.34 0.0 0 1 475.49 281.18
  Q 475.52 302.50 475.49 323.90
  Q 475.47 332.25 474.34 336.38
  C 467.29 362.07 420.82 378.64 398.83 384.67
  C 335.51 402.03 269.94 404.97 203.19 400.06
  Q 156.19 396.60 110.84 383.86
  Z"
/>
<path fill="#000000" d="
  M 264.68 512.00
  L 247.21 512.00
  Q 195.63 511.42 145.07 501.91
  C 114.33 496.13 46.66 478.62 37.60 445.71
  Q 36.53 441.83 36.51 433.08
  Q 36.48 412.03 36.51 390.97
  A 0.37 0.36 -73.5 0 1 37.07 390.66
  C 61.49 406.99 88.56 416.86 117.05 423.54
  Q 164.82 434.74 215.44 437.60
  C 277.00 441.07 339.25 437.29 398.43 422.91
  C 424.96 416.47 451.67 406.28 474.83 390.73
  A 0.43 0.43 0.0 0 1 475.50 391.09
  Q 475.49 410.46 475.51 430.01
  Q 475.52 441.80 474.14 446.38
  C 470.88 457.26 461.16 465.93 452.11 471.64
  C 426.77 487.62 397.15 495.94 367.06 501.84
  C 333.16 508.49 299.18 511.18 264.68 512.00
  Z"
/>
</svg>
