<?xml version="1.0" encoding="UTF-8" standalone="no"?>
<!-- Created with Inkscape (http://www.inkscape.org/) -->

<svg
   width="10in"
   height="5.8333335in"
   viewBox="0 0 254 148.16667"
   version="1.1"
   id="svg5"
   inkscape:version="1.1.1 (3bf5ae0d25, 2021-09-20)"
   sodipodi:docname="HARP Logo sign mocxkup.svg"
   inkscape:export-filename="C:\Users\harpe\Documents\LiminalCode\HARP Logo Shirt Res.png"
   inkscape:export-xdpi="600"
   inkscape:export-ydpi="600"
   xmlns:inkscape="http://www.inkscape.org/namespaces/inkscape"
   xmlns:sodipodi="http://sodipodi.sourceforge.net/DTD/sodipodi-0.dtd"
   xmlns="http://www.w3.org/2000/svg"
   xmlns:svg="http://www.w3.org/2000/svg">
  <sodipodi:namedview
     id="namedview7"
     pagecolor="#ffffff"
     bordercolor="#666666"
     borderopacity="1.0"
     inkscape:pageshadow="2"
     inkscape:pageopacity="0"
     inkscape:pagecheckerboard="0"
     inkscape:document-units="mm"
     showgrid="true"
     units="in"
     inkscape:zoom="4"
     inkscape:cx="285.625"
     inkscape:cy="188.5"
     inkscape:window-width="2400"
     inkscape:window-height="1494"
     inkscape:window-x="2869"
     inkscape:window-y="1339"
     inkscape:window-maximized="1"
     inkscape:current-layer="text2300">
    <inkscape:grid
       type="xygrid"
       id="grid3288"
       enabled="false" />
  </sodipodi:namedview>
  <defs
     id="defs2" />
  <g
     inkscape:label="Layer 1"
     inkscape:groupmode="layer"
     id="layer1">
    <text
       xml:space="preserve"
       style="font-size:1.41111px;line-height:1.25;font-family:sans-serif;word-spacing:0px;stroke-width:0.264583"
       x="23.345568"
       y="144.98825"
       id="text8736"><tspan
         sodipodi:role="line"
         id="tspan8734"
         style="stroke-width:0.264583"
         x="23.345568"
         y="144.98825" /></text>
    <text
       xml:space="preserve"
       style="font-size:50.8px;line-height:1.25;font-family:sans-serif;word-spacing:0px;stroke-width:0.264583"
       x="28.252542"
       y="112.63175"
       id="text9038"><tspan
         sodipodi:role="line"
         id="tspan9036"
         style="font-style:normal;font-variant:normal;font-weight:normal;font-stretch:normal;font-size:50.8px;font-family:Arial;-inkscape-font-specification:Arial;fill:#ffffff;fill-opacity:1;stroke-width:0.264583"
         x="28.252542"
         y="112.63175">research</tspan></text>
    <path
       style="fill:none;stroke:#80aeff;stroke-width:2.937;stroke-linecap:butt;stroke-linejoin:miter;stroke-miterlimit:4;stroke-dasharray:none;stroke-opacity:1"
       d="m 185.20833,60.060417 h 14.55208"
       id="path3641" />
    <path
       style="fill:none;stroke:#80aeff;stroke-width:2.937;stroke-linecap:butt;stroke-linejoin:miter;stroke-miterlimit:4;stroke-dasharray:none;stroke-opacity:1"
       d="M 199.76041,67.997917 H 189.17708"
       id="path3643" />
    <rect
       style="fill:#000000;fill-opacity:1;stroke:none;stroke-width:3.57008;stroke-linecap:round;stroke-linejoin:round;stroke-miterlimit:4;stroke-dasharray:none;stroke-opacity:1"
       id="rect4701-1"
       width="23.734671"
       height="5.1337423"
       x="181.46236"
       y="61.446983" />
    <g
       aria-label="HARP

"
       transform="matrix(1.1,0,0,1.1,-14.519047,-8.5904242)"
       id="text2300"
       style="font-size:79.375px;line-height:1.25;word-spacing:0px;white-space:pre;inline-size:232.441;fill:#20e054;stroke-width:2.67;stroke-linecap:round;stroke-linejoin:round">
      <path
         id="path5366"
         style="font-family:Nasalization;-inkscape-font-specification:Nasalization;stroke-width:11.1005"
         d="M 367.4707 30.457031 C 344.04069 30.457031 328.85936 38.377969 320.60938 59.167969 L 254.58594 226.31836 L 297.45898 226.31836 L 355.91992 77.978516 C 358.22992 72.698516 361.86064 70.386719 367.14062 70.386719 C 372.42062 70.386719 376.05125 72.698516 378.03125 77.978516 L 434.0332 226.32031 L 477.1875 226.32031 C 456.29723 171.3461 434.90056 115.03792 413.66992 59.167969 C 405.74992 38.377969 390.5707 30.457031 367.4707 30.457031 z M 477.1875 226.32031 L 488.91016 257.16797 L 521.58008 257.16797 L 560.51953 257.16797 L 560.51953 176.64844 C 560.51953 172.68844 562.49893 171.03711 566.12891 171.03711 L 624.20898 171.03711 L 675.0293 257.16797 L 718.25977 257.16797 L 666.44922 168.06836 C 700.43924 158.49836 713.64063 128.79812 713.64062 101.07812 C 713.64062 65.43813 692.1893 34.417969 642.0293 34.417969 L 521.25 34.417969 L 521.25 73.357422 L 643.34961 73.357422 C 664.79963 73.357422 674.36914 86.888512 674.36914 102.72852 C 674.36914 118.56852 665.45963 133.74805 643.34961 133.74805 L 556.56055 133.74805 C 532.14055 133.74805 521.58008 143.97664 521.58008 169.05664 L 521.58008 226.31836 L 477.1875 226.32031 z M 488.91016 257.16797 L 434.0332 226.32031 L 445.67969 257.16797 L 488.91016 257.16797 z M 297.45898 226.31836 L 170.13086 257.16797 L 285.30078 257.16797 L 297.45898 226.31836 z M 170.13086 257.16797 L 209.40039 226.31836 L 209.40039 34.417969 L 170.13086 34.417969 L 170.13086 125.16797 L 56.28125 125.16797 L 56.28125 34.417969 L 17.339844 34.417969 L 17.339844 257.16797 L 56.28125 257.16797 L 56.28125 164.10742 L 170.13086 164.10742 L 170.13086 257.16797 z "
         transform="matrix(0.2405303,0,0,0.2405303,13.199134,7.8094765)" />
      <path
         d="m 195.24915,16.087944 v 9.36625 h 27.86063 c 5.08,0 7.38187,3.254375 7.38187,7.14375 0,3.730625 -2.14312,7.381875 -7.46125,7.381875 h -19.28812 c -5.87375,0 -8.41375,2.460625 -8.41375,8.493125 v 21.193125 h 9.36625 v -19.3675 c 0,-0.9525 0.47625,-1.349375 1.34937,-1.349375 h 16.66875 c 12.54125,0 17.22438,-8.73125 17.22438,-16.8275 0,-8.5725 -5.15938,-16.03375 -17.22438,-16.03375 z"
         style="font-family:Nasalization;-inkscape-font-specification:Nasalization"
         id="path5372" />
    </g>
  </g>
</svg>
