<?xml version="1.0" encoding="UTF-8" standalone="no"?>
<!-- Created with Inkscape (http://www.inkscape.org/) -->

<svg
   width="13.75in"
   height="9.75in"
   viewBox="0 0 349.25 247.65"
   version="1.1"
   id="svg5"
   inkscape:version="1.1.1 (3bf5ae0d25, 2021-09-20)"
   sodipodi:docname="HARP Logo Screen Print template.svg"
   inkscape:export-filename="C:\Users\harpe\Documents\LiminalCode\HARP Logo Shirt Res.png"
   inkscape:export-xdpi="600"
   inkscape:export-ydpi="600"
   xmlns:inkscape="http://www.inkscape.org/namespaces/inkscape"
   xmlns:sodipodi="http://sodipodi.sourceforge.net/DTD/sodipodi-0.dtd"
   xmlns="http://www.w3.org/2000/svg"
   xmlns:svg="http://www.w3.org/2000/svg">
  <sodipodi:namedview
     id="namedview7"
     pagecolor="#ffffff"
     bordercolor="#666666"
     borderopacity="1.0"
     inkscape:pageshadow="2"
     inkscape:pageopacity="0.0"
     inkscape:pagecheckerboard="0"
     inkscape:document-units="mm"
     showgrid="false"
     units="in"
     inkscape:zoom="0.84274116"
     inkscape:cx="523.88565"
     inkscape:cy="601.60821"
     inkscape:window-width="2400"
     inkscape:window-height="1494"
     inkscape:window-x="-11"
     inkscape:window-y="-11"
     inkscape:window-maximized="1"
     inkscape:current-layer="g1094" />
  <defs
     id="defs2">
    <clipPath
       clipPathUnits="userSpaceOnUse"
       id="clipPath1078">
      <rect
         style="fill:#000000;fill-opacity:1;stroke-width:0.639508;stroke-linecap:round;stroke-linejoin:round"
         id="rect1080"
         width="33.819901"
         height="39.256046"
         x="218.41145"
         y="33.637527" />
    </clipPath>
  </defs>
  <g
     inkscape:label="Layer 1"
     inkscape:groupmode="layer"
     id="layer1">
    <text
       xml:space="preserve"
       style="font-size:1.41111px;line-height:1.25;font-family:sans-serif;word-spacing:0px;stroke-width:0.264583"
       x="23.345568"
       y="144.98825"
       id="text8736"><tspan
         sodipodi:role="line"
         id="tspan8734"
         style="stroke-width:0.264583"
         x="23.345568"
         y="144.98825" /></text>
    <g
       id="g1094"
       transform="translate(7.0243061,36.320652)">
      <g
         aria-label="HARP

"
         transform="matrix(1.4120179,0,0,1.4120179,-7.0362975,-1.3671703)"
         id="text2300"
         style="font-size:79.375px;line-height:1.25;word-spacing:0px;white-space:pre;inline-size:232.441;stroke-width:0.396874">
        <path
           d="m 17.370078,16.087944 v 53.578125 h 9.36625 v -22.38375 h 27.384375 v 22.38375 h 9.445625 V 16.087944 H 54.120703 V 37.916069 H 26.736328 V 16.087944 Z"
           style="font-family:Nasalization;-inkscape-font-specification:Nasalization"
           id="path1159" />
        <path
           d="m 98.808742,26.565444 c 0.555625,-1.27 1.428748,-1.825625 2.698748,-1.825625 1.27,0 2.14313,0.555625 2.61938,1.825625 l 16.27187,43.100625 h 10.39813 l -18.0975,-47.625 c -1.905,-5.000625 -5.55625,-6.905625 -11.1125,-6.905625 -5.635628,0 -9.286878,1.905 -11.271253,6.905625 l -18.811875,47.625 h 10.31875 z"
           style="font-family:Nasalization;-inkscape-font-specification:Nasalization"
           id="path1161" />
        <path
           d="m 138.57549,16.087944 v 9.36625 h 29.36875 c 5.15938,0 7.46125,3.254375 7.46125,7.064375 0,3.81 -2.14312,7.46125 -7.46125,7.46125 h -20.87562 c -5.87375,0 -8.41375,2.460625 -8.41375,8.493125 v 21.193125 h 9.36625 v -19.3675 c 0,-0.9525 0.47625,-1.349375 1.34937,-1.349375 h 13.97 l 12.22375,20.716875 h 10.39813 l -12.46188,-21.43125 c 8.17563,-2.301875 11.35063,-9.445625 11.35063,-16.113125 0,-8.5725 -5.15938,-16.03375 -17.22438,-16.03375 z"
           style="font-family:Nasalization;-inkscape-font-specification:Nasalization"
           id="path1163" />
        <path
           d="m 195.24915,16.087944 v 9.36625 h 27.86063 c 5.08,0 7.38187,3.254375 7.38187,7.14375 0,3.730625 -2.14312,7.381875 -7.46125,7.381875 h -19.28812 c -5.87375,0 -8.41375,2.460625 -8.41375,8.493125 v 21.193125 h 9.36625 v -19.3675 c 0,-0.9525 0.47625,-1.349375 1.34937,-1.349375 h 16.66875 c 12.54125,0 17.22438,-8.73125 17.22438,-16.8275 0,-8.5725 -5.15938,-16.03375 -17.22438,-16.03375 z"
           style="font-family:Nasalization;-inkscape-font-specification:Nasalization"
           id="path1165" />
      </g>
      <path
         d="m 20.400684,104.09509 c -0.512578,4.73068 -3.63428,8.98894 -10.4588308,8.98894 h -6.5888 v 12.66491 h 6.140484 c 16.5584928,0 23.5220448,-10.91262 24.3427928,-21.65902"
         style="font-family:Nasalization;-inkscape-font-specification:Nasalization;fill:#000000;fill-opacity:1;stroke:none;stroke-width:0.264583;stroke-opacity:1"
         id="path2020"
         sodipodi:nodetypes="csccsc" />
      <g
         aria-label="research"
         id="text9038"
         style="font-size:65.2095px;line-height:1.25;word-spacing:0px;stroke-width:0.33966">
        <path
           d="m 52.102461,154.24017 v -33.81469 h 5.158174 v 5.12633 q 1.974116,-3.59798 3.629826,-4.74424 1.68755,-1.14626 3.693507,-1.14626 2.897492,0 5.890507,1.84675 l -1.974116,5.31738 q -2.101478,-1.24179 -4.202957,-1.24179 -1.878594,0 -3.375101,1.14626 -1.496507,1.11442 -2.133319,3.12038 -0.955217,3.0567 -0.955217,6.68652 v 17.70336 z"
           style="font-family:Arial;-inkscape-font-specification:Arial"
           id="path1133" />
        <path
           d="m 97.029517,143.3507 5.922343,0.73233 q -1.40098,5.19001 -5.19001,8.05567 -3.789028,2.86565 -9.679535,2.86565 -7.418855,0 -11.781014,-4.55321 -4.330319,-4.58504 -4.330319,-12.83175 0,-8.53327 4.394,-13.24568 4.394,-4.7124 11.398927,-4.7124 6.782043,0 11.080521,4.61688 4.29848,4.61688 4.29848,12.99096 0,0.50944 -0.0318,1.52834 H 77.89333 q 0.318406,5.5721 3.152217,8.53328 2.833812,2.96117 7.068608,2.96117 3.152218,0 5.381058,-1.65571 2.22884,-1.65571 3.534304,-5.28553 z m -18.817781,-9.26561 h 18.881462 q -0.382087,-4.26664 -2.165159,-6.39996 -2.73829,-3.31142 -7.100449,-3.31142 -3.948231,0 -6.654681,2.64277 -2.674608,2.64277 -2.961173,7.06861 z"
           style="font-family:Arial;-inkscape-font-specification:Arial"
           id="path1135" />
        <path
           d="m 107.85531,144.14671 5.66763,-0.89154 q 0.47761,3.40695 2.64276,5.22186 2.197,1.81491 6.1134,1.81491 3.94823,0 5.85866,-1.59203 1.91044,-1.62387 1.91044,-3.78903 0,-1.94227 -1.68755,-3.05669 -1.17811,-0.76418 -5.85867,-1.94228 -6.30443,-1.59203 -8.75616,-2.73829 -2.41988,-1.1781 -3.69351,-3.21589 -1.24178,-2.06964 -1.24178,-4.55321 0,-2.26068 1.0189,-4.17111 1.05074,-1.94228 2.83381,-3.2159 1.33731,-0.98706 3.62983,-1.65571 2.32436,-0.70049 4.96713,-0.70049 3.98007,0 6.97308,1.14626 3.02486,1.14626 4.45768,3.12037 1.43283,1.94228 1.97412,5.22186 l -5.60394,0.76417 q -0.38209,-2.61093 -2.22884,-4.07559 -1.81491,-1.46467 -5.15818,-1.46467 -3.94823,0 -5.63578,1.30547 -1.68755,1.30546 -1.68755,3.05669 0,1.11442 0.70049,2.00596 0.7005,0.92337 2.197,1.52834 0.8597,0.31841 5.06266,1.46467 6.08155,1.62387 8.46959,2.67461 2.41988,1.0189 3.78903,2.99301 1.36914,1.97412 1.36914,4.90345 0,2.86566 -1.68755,5.4129 -1.65571,2.51541 -4.80792,3.91639 -3.15222,1.36915 -7.13229,1.36915 -6.591,0 -10.06163,-2.73829 -3.43878,-2.73829 -4.394,-8.11935 z"
           style="font-family:Arial;-inkscape-font-specification:Arial"
           id="path1137" />
        <path
           d="m 165.90068,143.3507 5.92235,0.73233 q -1.40098,5.19001 -5.19001,8.05567 -3.78903,2.86565 -9.67954,2.86565 -7.41885,0 -11.78101,-4.55321 -4.33032,-4.58504 -4.33032,-12.83175 0,-8.53327 4.394,-13.24568 4.394,-4.7124 11.39893,-4.7124 6.78204,0 11.08052,4.61688 4.29847,4.61688 4.29847,12.99096 0,0.50944 -0.0318,1.52834 H 146.7645 q 0.3184,5.5721 3.15221,8.53328 2.83381,2.96117 7.06861,2.96117 3.15222,0 5.38106,-1.65571 2.22884,-1.65571 3.5343,-5.28553 z m -18.81778,-9.26561 h 18.88146 q -0.38208,-4.26664 -2.16515,-6.39996 -2.73829,-3.31142 -7.10045,-3.31142 -3.94824,0 -6.65468,2.64277 -2.67461,2.64277 -2.96118,7.06861 z"
           style="font-family:Arial;-inkscape-font-specification:Arial"
           id="path1139" />
        <path
           d="m 201.08452,150.06906 q -3.18406,2.70645 -6.14523,3.82087 -2.92933,1.11442 -6.30443,1.11442 -5.5721,0 -8.56512,-2.70645 -2.99301,-2.73829 -2.99301,-6.97309 0,-2.48356 1.11442,-4.52136 1.14626,-2.06964 2.96117,-3.31142 1.84675,-1.24178 4.13928,-1.87859 1.68755,-0.44577 5.09449,-0.8597 6.94124,-0.82786 10.22082,-1.97412 0.0318,-1.1781 0.0318,-1.4965 0,-3.50247 -1.62387,-4.93529 -2.197,-1.94228 -6.52731,-1.94228 -4.04376,0 -5.98603,1.43283 -1.91044,1.40098 -2.83381,4.99897 l -5.60395,-0.76418 q 0.76418,-3.59798 2.51541,-5.79498 1.75123,-2.22884 5.06265,-3.40694 3.31142,-1.20994 7.67358,-1.20994 4.33032,0 7.03677,1.01889 2.70645,1.0189 3.98007,2.57909 1.27362,1.52835 1.78307,3.88455 0.28657,1.46467 0.28657,5.28554 v 7.64174 q 0,7.99198 0.35025,10.1253 0.38208,2.10148 1.46466,4.04375 h -5.98603 q -0.89153,-1.78307 -1.14626,-4.17111 z m -0.47761,-12.79991 q -3.12037,1.27362 -9.36113,2.16515 -3.5343,0.50945 -4.99897,1.14627 -1.46466,0.63681 -2.26068,1.87859 -0.79601,1.20994 -0.79601,2.70645 0,2.29252 1.71939,3.82087 1.75123,1.52835 5.09449,1.52835 3.31142,0 5.89051,-1.43283 2.57908,-1.46467 3.78903,-3.98007 0.92337,-1.94228 0.92337,-5.73131 z"
           style="font-family:Arial;-inkscape-font-specification:Arial"
           id="path1141" />
        <path
           d="m 215.22174,154.24017 v -33.81469 h 5.15817 v 5.12633 q 1.97412,-3.59798 3.62983,-4.74424 1.68755,-1.14626 3.69351,-1.14626 2.89749,0 5.8905,1.84675 l -1.97411,5.31738 q -2.10148,-1.24179 -4.20296,-1.24179 -1.87859,0 -3.3751,1.14626 -1.49651,1.11442 -2.13332,3.12038 -0.95522,3.0567 -0.95522,6.68652 v 17.70336 z"
           style="font-family:Arial;-inkscape-font-specification:Arial"
           id="path1143" />
        <path
           d="m 259.06623,141.85419 5.63578,0.73233 q -0.92338,5.82683 -4.74425,9.13825 -3.78903,3.27958 -9.32929,3.27958 -6.94124,0 -11.17604,-4.52136 -4.20296,-4.55321 -4.20296,-13.0228 0,-5.47658 1.81492,-9.58402 1.81491,-4.10743 5.50842,-6.14523 3.72535,-2.06963 8.0875,-2.06963 5.50842,0 9.01089,2.80197 3.50246,2.77013 4.48952,7.89646 l -5.5721,0.8597 q -0.79602,-3.40695 -2.83381,-5.12634 -2.00596,-1.71939 -4.87161,-1.71939 -4.33032,0 -7.03677,3.12038 -2.70645,3.08853 -2.70645,9.8069 0,6.81388 2.61093,9.90242 2.61093,3.08853 6.81388,3.08853 3.3751,0 5.63578,-2.06964 2.26069,-2.06963 2.86566,-6.36811 z"
           style="font-family:Arial;-inkscape-font-specification:Arial"
           id="path1145" />
        <path
           d="m 269.60544,154.24017 v -46.67828 h 5.73131 v 16.74814 q 4.01191,-4.64872 10.1253,-4.64872 3.75719,0 6.52732,1.4965 2.77013,1.46467 3.94823,4.0756 1.20994,2.61092 1.20994,7.57805 v 21.42871 h -5.7313 v -21.42871 q 0,-4.29847 -1.8786,-6.24075 -1.84675,-1.97411 -5.25369,-1.97411 -2.54725,0 -4.80793,1.3373 -2.22884,1.30546 -3.18406,3.56614 -0.95521,2.26069 -0.95521,6.24076 v 18.49937 z"
           style="font-family:Arial;-inkscape-font-specification:Arial"
           id="path1147" />
      </g>
    </g>
  </g>
</svg>
