<?xml version="1.0" encoding="UTF-8" standalone="no"?>
<!-- Created with Inkscape (http://www.inkscape.org/) -->

<svg
   width="10in"
   height="5.8333335in"
   viewBox="0 0 254 148.16667"
   version="1.1"
   id="svg5"
   inkscape:version="1.1.1 (3bf5ae0d25, 2021-09-20)"
   sodipodi:docname="HARP Logo Shirt Res.svg"
   inkscape:export-filename="C:\Users\harpe\Documents\LiminalCode\HARP Logo Shirt Res.png"
   inkscape:export-xdpi="600"
   inkscape:export-ydpi="600"
   xmlns:inkscape="http://www.inkscape.org/namespaces/inkscape"
   xmlns:sodipodi="http://sodipodi.sourceforge.net/DTD/sodipodi-0.dtd"
   xmlns="http://www.w3.org/2000/svg"
   xmlns:svg="http://www.w3.org/2000/svg">
  <sodipodi:namedview
     id="namedview7"
     pagecolor="#ffffff"
     bordercolor="#666666"
     borderopacity="1.0"
     inkscape:pageshadow="2"
     inkscape:pageopacity="0.0"
     inkscape:pagecheckerboard="0"
     inkscape:document-units="mm"
     showgrid="false"
     units="in"
     inkscape:zoom="0.62016261"
     inkscape:cx="328.94598"
     inkscape:cy="362.80807"
     inkscape:window-width="2400"
     inkscape:window-height="1494"
     inkscape:window-x="-11"
     inkscape:window-y="-11"
     inkscape:window-maximized="1"
     inkscape:current-layer="text2300" />
  <defs
     id="defs2" />
  <g
     inkscape:label="Layer 1"
     inkscape:groupmode="layer"
     id="layer1">
    <text
       xml:space="preserve"
       style="font-size:1.41111px;line-height:1.25;font-family:sans-serif;word-spacing:0px;stroke-width:0.264583"
       x="23.345568"
       y="144.98825"
       id="text8736"><tspan
         sodipodi:role="line"
         id="tspan8734"
         style="stroke-width:0.264583"
         x="23.345568"
         y="144.98825" /></text>
    <g
       aria-label="HARP

"
       transform="matrix(1.1,0,0,1.1,-14.519047,-8.5904242)"
       id="text2300"
       style="font-size:79.375px;line-height:1.25;word-spacing:0px;white-space:pre;inline-size:232.441;fill:#80aeff;stroke-width:0.396874">
      <path
         d="m 17.370078,16.087944 v 53.578125 h 9.36625 v -22.38375 h 27.384375 v 22.38375 h 9.445625 V 16.087944 H 54.120703 V 37.916069 H 26.736328 V 16.087944 Z"
         style="font-family:Nasalization;-inkscape-font-specification:Nasalization"
         id="path2498" />
      <path
         d="m 98.808742,26.565444 c 0.555625,-1.27 1.428748,-1.825625 2.698748,-1.825625 1.27,0 2.14313,0.555625 2.61938,1.825625 l 16.27187,43.100625 h 10.39813 l -18.0975,-47.625 c -1.905,-5.000625 -5.55625,-6.905625 -11.1125,-6.905625 -5.635628,0 -9.286878,1.905 -11.271253,6.905625 l -18.811875,47.625 h 10.31875 z"
         style="font-family:Nasalization;-inkscape-font-specification:Nasalization"
         id="path2500" />
      <path
         d="m 138.57549,16.087944 v 9.36625 h 29.36875 c 5.15938,0 7.46125,3.254375 7.46125,7.064375 0,3.81 -2.14312,7.46125 -7.46125,7.46125 h -20.87562 c -5.87375,0 -8.41375,2.460625 -8.41375,8.493125 v 21.193125 h 9.36625 v -19.3675 c 0,-0.9525 0.47625,-1.349375 1.34937,-1.349375 h 13.97 l 12.22375,20.716875 h 10.39813 l -12.46188,-21.43125 c 8.17563,-2.301875 11.35063,-9.445625 11.35063,-16.113125 0,-8.5725 -5.15938,-16.03375 -17.22438,-16.03375 z"
         style="font-family:Nasalization;-inkscape-font-specification:Nasalization"
         id="path2502" />
      <path
         d="m 195.24915,16.087944 v 9.36625 h 27.86063 c 5.08,0 7.38187,3.254375 7.38187,7.14375 0,3.730625 -2.14312,7.381875 -7.46125,7.381875 h -19.28812 c -5.87375,0 -8.41375,2.460625 -8.41375,8.493125 v 21.193125 h 9.36625 v -19.3675 c 0,-0.9525 0.47625,-1.349375 1.34937,-1.349375 h 16.66875 c 12.54125,0 17.22438,-8.73125 17.22438,-16.8275 0,-8.5725 -5.15938,-16.03375 -17.22438,-16.03375 z"
         style="font-family:Nasalization;-inkscape-font-specification:Nasalization"
         id="path2504" />
    </g>
    <g
       aria-label="research"
       id="text9038"
       style="font-size:50.8px;line-height:1.25;word-spacing:0px;stroke-width:0.264583">
      <path
         d="M 31.551566,112.63175 V 86.289174 h 4.018359 v 3.993555 q 1.537891,-2.80293 2.827735,-3.695898 1.314648,-0.892969 2.877343,-0.892969 2.257227,0 4.588867,1.438672 l -1.53789,4.142382 q -1.63711,-0.967382 -3.274219,-0.967382 -1.463476,0 -2.629297,0.892968 -1.16582,0.868164 -1.661914,2.43086 -0.74414,2.38125 -0.74414,5.208984 v 13.791404 z"
         style="font-family:Arial;-inkscape-font-specification:Arial;fill:#ffffff"
         id="path2525" />
      <path
         d="m 66.550979,104.14855 4.613671,0.57051 q -1.091406,4.04316 -4.043164,6.27558 -2.951757,2.23242 -7.540625,2.23242 -5.779492,0 -9.177734,-3.54707 -3.373437,-3.57187 -3.373437,-9.996285 0,-6.647656 3.423047,-10.31875 3.423046,-3.671093 8.880078,-3.671093 5.283398,0 8.632031,3.596679 3.348632,3.59668 3.348632,10.120313 0,0.396875 -0.0248,1.190626 H 51.643362 q 0.248046,4.34082 2.455664,6.64765 2.207617,2.30684 5.50664,2.30684 2.455664,0 4.191992,-1.28984 1.736328,-1.28985 2.753321,-4.11758 z M 51.891408,96.930385 h 14.70918 q -0.297656,-3.323828 -1.686719,-4.985742 -2.133203,-2.579688 -5.531445,-2.579688 -3.075781,0 -5.18418,2.05879 -2.083593,2.058789 -2.306836,5.50664 z"
         style="font-family:Arial;-inkscape-font-specification:Arial;fill:#ffffff"
         id="path2527" />
      <path
         d="m 74.984572,104.76867 4.415235,-0.69454 q 0.37207,2.65411 2.058789,4.06797 1.711523,1.41387 4.762499,1.41387 3.075782,0 4.564063,-1.24023 1.488281,-1.26504 1.488281,-2.95176 0,-1.51309 -1.314648,-2.38125 -0.917774,-0.59531 -4.564063,-1.51309 -4.911328,-1.24023 -6.821289,-2.1332 -1.885156,-0.917774 -2.877343,-2.505274 -0.967383,-1.612304 -0.967383,-3.54707 0,-1.761133 0.79375,-3.249414 0.818554,-1.513086 2.207617,-2.505273 1.041797,-0.768946 2.827734,-1.289844 1.810742,-0.545703 3.869531,-0.545703 3.100586,0 5.432227,0.892969 2.356445,0.892968 3.472656,2.430859 1.116211,1.513086 1.537891,4.067969 l -4.365625,0.595312 q -0.297656,-2.033984 -1.736328,-3.175 -1.413867,-1.141016 -4.01836,-1.141016 -3.075781,0 -4.390429,1.016993 -1.314649,1.016992 -1.314649,2.38125 0,0.868164 0.545703,1.562695 0.545704,0.719336 1.711524,1.190625 0.669726,0.248047 3.943945,1.141016 4.737695,1.265039 6.598047,2.083593 1.885156,0.79375 2.951758,2.331643 1.066601,1.53789 1.066601,3.81992 0,2.23242 -1.314648,4.2168 -1.289844,1.95957 -3.745508,3.05097 -2.455664,1.0666 -5.55625,1.0666 -5.13457,0 -7.838281,-2.1332 -2.678906,-2.1332 -3.423047,-6.32519 z"
         style="font-family:Arial;-inkscape-font-specification:Arial;fill:#ffffff"
         id="path2529" />
      <path
         d="m 120.20352,104.14855 4.61367,0.57051 q -1.09141,4.04316 -4.04316,6.27558 -2.95176,2.23242 -7.54063,2.23242 -5.77949,0 -9.17773,-3.54707 -3.37344,-3.57187 -3.37344,-9.996285 0,-6.647656 3.42305,-10.31875 3.42304,-3.671093 8.88007,-3.671093 5.2834,0 8.63204,3.596679 3.34863,3.59668 3.34863,10.120313 0,0.396875 -0.0248,1.190626 H 105.2959 q 0.24805,4.34082 2.45567,6.64765 2.20761,2.30684 5.50664,2.30684 2.45566,0 4.19199,-1.28984 1.73633,-1.28985 2.75332,-4.11758 z m -14.65957,-7.218165 h 14.70918 q -0.29766,-3.323828 -1.68672,-4.985742 -2.1332,-2.579688 -5.53145,-2.579688 -3.07578,0 -5.18418,2.05879 -2.08359,2.058789 -2.30683,5.50664 z"
         style="font-family:Arial;-inkscape-font-specification:Arial;fill:#ffffff"
         id="path2531" />
      <path
         d="m 147.61269,109.38234 q -2.48047,2.1084 -4.7873,2.97656 -2.28203,0.86816 -4.91133,0.86816 -4.34082,0 -6.67246,-2.10839 -2.33164,-2.13321 -2.33164,-5.43223 0,-1.93477 0.86816,-3.52227 0.89297,-1.6123 2.30684,-2.579683 1.43867,-0.967383 3.22461,-1.463477 1.31465,-0.347266 3.96875,-0.669727 5.40742,-0.644921 7.9623,-1.53789 0.0248,-0.917774 0.0248,-1.16582 0,-2.728516 -1.26504,-3.844727 -1.71153,-1.513086 -5.08496,-1.513086 -3.1502,0 -4.66328,1.116211 -1.48829,1.091406 -2.20762,3.894336 l -4.36563,-0.595313 q 0.59532,-2.802929 1.95957,-4.514453 1.36426,-1.736328 3.94395,-2.654101 2.57969,-0.942578 5.97793,-0.942578 3.37344,0 5.48183,0.79375 2.1084,0.79375 3.10059,2.009179 0.99219,1.190625 1.38906,3.026172 0.22325,1.141016 0.22325,4.117578 v 5.953129 q 0,6.22597 0.27285,7.88789 0.29765,1.63711 1.14101,3.15019 h -4.66328 q -0.69453,-1.38906 -0.89297,-3.24941 z m -0.37207,-9.971486 q -2.43086,0.992186 -7.29258,1.686716 -2.75332,0.39688 -3.89433,0.89297 -1.14102,0.49609 -1.76113,1.46348 -0.62012,0.94258 -0.62012,2.1084 0,1.78593 1.33945,2.97656 1.36426,1.19062 3.96875,1.19062 2.57969,0 4.58887,-1.11621 2.00918,-1.14101 2.95176,-3.10058 0.71933,-1.51309 0.71933,-4.46485 z"
         style="font-family:Arial;-inkscape-font-specification:Arial;fill:#ffffff"
         id="path2533" />
      <path
         d="M 158.62598,112.63175 V 86.289174 h 4.01835 v 3.993555 q 1.5379,-2.80293 2.82774,-3.695898 1.31465,-0.892969 2.87734,-0.892969 2.25723,0 4.58887,1.438672 l -1.53789,4.142382 q -1.63711,-0.967382 -3.27422,-0.967382 -1.46348,0 -2.6293,0.892968 -1.16582,0.868164 -1.66191,2.43086 -0.74414,2.38125 -0.74414,5.208984 v 13.791404 z"
         style="font-family:Arial;-inkscape-font-specification:Arial;fill:#ffffff"
         id="path2535" />
      <path
         d="m 192.78203,102.98273 4.39043,0.57051 q -0.71933,4.53925 -3.69589,7.11894 -2.95176,2.55488 -7.26778,2.55488 -5.40742,0 -8.70644,-3.52226 -3.27422,-3.54707 -3.27422,-10.145118 0,-4.266406 1.41387,-7.466211 1.41386,-3.199805 4.29121,-4.787305 2.90214,-1.612304 6.30039,-1.612304 4.29121,0 7.01972,2.182812 2.72852,2.158008 3.49746,6.151563 l -4.34082,0.669726 q -0.62011,-2.654101 -2.20761,-3.993554 -1.5627,-1.339454 -3.79512,-1.339454 -3.37344,0 -5.48184,2.43086 -2.10839,2.406054 -2.10839,7.639843 0,5.308202 2.03398,7.714262 2.03398,2.40605 5.3082,2.40605 2.6293,0 4.39043,-1.6123 1.76114,-1.61231 2.23242,-4.96094 z"
         style="font-family:Arial;-inkscape-font-specification:Arial;fill:#ffffff"
         id="path2537" />
      <path
         d="M 200.99238,112.63175 V 76.268081 h 4.46484 v 13.047265 q 3.12539,-3.621484 7.88789,-3.621484 2.92696,0 5.08497,1.16582 2.158,1.141016 3.07578,3.175 0.94257,2.033984 0.94257,5.903516 v 16.693552 h -4.46484 V 95.938198 q 0,-3.348633 -1.46348,-4.861719 -1.43867,-1.537891 -4.09277,-1.537891 -1.98437,0 -3.74551,1.041797 -1.73632,1.016992 -2.48047,2.778125 -0.74414,1.761133 -0.74414,4.861719 v 14.411521 z"
         style="font-family:Arial;-inkscape-font-specification:Arial;fill:#ffffff"
         id="path2539" />
    </g>
  </g>
</svg>
